<?xml version="1.0" encoding="utf-8"?>
<!-- Generator: Adobe Illustrator 24.0.3, SVG Export Plug-In . SVG Version: 6.00 Build 0)  -->
<svg version="1.1" id="Layer_1" xmlns="http://www.w3.org/2000/svg" xmlns:xlink="http://www.w3.org/1999/xlink" x="0px" y="0px"
	 viewBox="0 0 1417.32 1417.32" style="enable-background:new 0 0 1417.32 1417.32;" xml:space="preserve">
<style type="text/css">
	.st0{display:none;fill:none;stroke:#1D1D1B;stroke-miterlimit:10;}
	.st1{fill:url(#SVGID_1_);}
	.st2{fill:#004E92;}
	.st3{fill:url(#SVGID_2_);}
	.st4{fill:#FFFFFF;}
	.st5{font-family:'MyriadPro-Bold';}
	.st6{font-size:170.7781px;}
	.st7{fill:#312783;}
	.st8{fill:#000428;}
	.st9{font-size:265.8446px;}
	.st10{fill:#575756;}
	.st11{font-family:'BirdsofParadise';}
	.st12{font-size:62.2487px;}
	.st13{letter-spacing:10;}
</style>
<circle class="st0" cx="710.1" cy="708.66" r="708.66"/>
<linearGradient id="SVGID_1_" gradientUnits="userSpaceOnUse" x1="769.6425" y1="383.9727" x2="636.5826" y2="621.0612">
	<stop  offset="0" style="stop-color:#000428"/>
	<stop  offset="1" style="stop-color:#004E92"/>
</linearGradient>
<path class="st1" d="M181.4,1001.26L181.4,1001.26c-35.75-18.14-50.02-61.82-31.88-97.57l373.67-736.4
	c17.77-35.03,53.59-56.5,93.03-55.58c37.98,0.89,72.01,23.84,89.2,57.72l236.82,470.91c16.03,31.6,14.61,68.45-3.78,98.7
	c-18.78,30.9-53.21,48.82-89.36,48.82H611.84c-40.08,0-72.58-32.49-72.58-72.58l0,0c0-40.08,32.49-72.58,72.58-72.58h168.82
	L613.76,309.59l-334.8,659.79C260.82,1005.12,217.14,1019.4,181.4,1001.26z"/>
<path class="st2" d="M938.46,739.04c18.38-30.24,19.81-67.1,3.78-98.7L705.41,169.43c-17.19-33.88-51.22-56.82-89.2-57.72
	c-39.44-0.93-75.26,20.55-93.03,55.58L455.2,301.27h0c107.52-105.92,158.56,8.32,158.56,8.32l166.91,333.12H611.84
	c-40.08,0-72.58,32.49-72.58,72.58c0,40.08,32.49,72.58,72.58,72.58H849.1C885.25,787.86,919.68,769.94,938.46,739.04z"/>
<linearGradient id="SVGID_2_" gradientUnits="userSpaceOnUse" x1="803.3604" y1="693.1719" x2="647.3172" y2="717.3646">
	<stop  offset="0" style="stop-color:#00B8D4"/>
	<stop  offset="1" style="stop-color:#00B8D4;stop-opacity:0"/>
</linearGradient>
<path class="st3" d="M780.67,642.71H611.84c-40.08,0-72.58,32.49-72.58,72.58c0,40.08,32.49,72.58,72.58,72.58h103.08
	C857.66,769.03,780.67,642.71,780.67,642.71z"/>
<g>
	<path class="st4" d="M647.18,712.78c0.14,15.42,13.53,20.55,13.68,20.62c-0.11,0.36-2.14,7.31-7.05,14.49
		c-4.25,6.21-8.65,12.39-15.6,12.52c-6.82,0.13-9.02-4.05-16.82-4.05c-7.8,0-10.24,3.92-16.69,4.17c-6.7,0.25-11.81-6.71-16.09-12.9
		c-8.75-12.65-15.44-35.75-6.46-51.34c4.46-7.74,12.43-12.65,21.08-12.77c6.58-0.13,12.79,4.43,16.82,4.43
		c4.02,0,11.57-5.48,19.51-4.67c3.32,0.14,12.65,1.34,18.64,10.11C657.71,693.69,647.07,699.89,647.18,712.78 M634.36,674.92
		c3.56-4.31,5.95-10.3,5.3-16.27c-5.13,0.21-11.33,3.42-15.01,7.72c-3.3,3.81-6.18,9.91-5.41,15.76
		C624.96,682.57,630.8,679.23,634.36,674.92"/>
</g>
<g>
	<text transform="matrix(1 0 0 1 975.3193 772.5075)" class="st5 st6">AIR</text>
	<text transform="matrix(1 0 0 1 975.3193 772.5075)" class="st7 st5 st6">AIR</text>
	<text transform="matrix(1 0 0 1 975.3193 772.5075)" class="st8 st5 st6">AIR</text>
	<text transform="matrix(1 0 0 1 975.3193 772.5075)" class="st2 st5 st6">AIR</text>
	<text transform="matrix(1 0 0 1 975.3193 772.5075)" class="st8 st5 st6">AIR</text>
</g>
<g>
	<text transform="matrix(1.1557 0 0 1 371.8149 1002.0407)" class="st5 st9">APPLE</text>
	<g>
		<text transform="matrix(1.1557 0 0 1 371.8149 1002.0407)" class="st8 st5 st9">APPLE</text>
	</g>
</g>
<text transform="matrix(1 0 0 1 315.3823 1144.4313)" class="st10 st11 st12 st13">Your Dream Apple Products</text>
<g>
	<path class="st2" d="M298.22,1057.05c0,3.35,2.72,6.07,6.07,6.07h930.27c3.35,0,6.07-2.72,6.07-6.07c0-3.35-2.72-6.07-6.07-6.07
		H304.29C300.93,1050.98,298.22,1053.7,298.22,1057.05C298.22,1057.05,298.22,1053.7,298.22,1057.05z"/>
</g>
</svg>
